# xmcd
#
# Track frame offsets:
#	150
#	13743
#	32246
#	47473
#	61593
#	76106
#	93768
#	108121
#	121351
#	137222
#	154239
#	171665
#	186485
#	204518
#
# Disc length: 2889 seconds
#
# Revision: 0
# Processed by: cddbd v1.5.2PL0 Copyright (c) Steve Scherf et al.
# Submitted via: dBpowerAMP V4.0
#
DISCID=b50b470e
DTITLE=Liu e Léu 50 Anos  - 50 Anos de Sucesso
DYEAR=2009
DGENRE=Country
TTITLE0=01 -40 Graus de Saudade (Osvaldo F. Silva e Camões)
TTITLE1=02 -Figura do Velho (Caetano Erba e Tião do Carro)
TTITLE2=03 -Nós e os Loucos (José Fortuna e Paraíso)
TTITLE3=04 -Jardineira Amarela (Caetano Erba e Tião do Carro)
TTITLE4=05 -Romper da Aurora Luiz Godofredo e Alcides Moraes)
TTITLE5=06 -Padroeira (Maracaí e João Gonçalves)
TTITLE6=07 -Sonho de Caboclo (Tião do Carro e Ademar Braga)
TTITLE7=08 -No Colo de Deus (Miguelzinho e Kelito)
TTITLE8=09 -Paixão Desenfreada (Praense e Eli Silva)
TTITLE9=10 -Pequeno não é Pedaço (Izautino Gonçalves)
TTITLE10=11 -Volta do Caminheiro (Jack)
TTITLE11=12 -Saco de Ouro (Caetano Erba e Paraíso)
TTITLE12=13 -O Perigo Anda Solto (Tião do Carro e Francisco Lázaro)
TTITLE13=14 -Chalana (Mário Zan e Arlindo Pinto)
EXTD=
EXTT0=
EXTT1=
EXTT2=
EXTT3=
EXTT4=
EXTT5=
EXTT6=
EXTT7=
EXTT8=
EXTT9=
EXTT10=
EXTT11=
EXTT12=
EXTT13=
PLAYORDER=
